<?xml version="1.0" encoding="utf-8"?>
<!-- Generator: Adobe Illustrator 23.0.1, SVG Export Plug-In . SVG Version: 6.00 Build 0)  -->
<svg version="1.1" id="Layer_1" xmlns="http://www.w3.org/2000/svg" xmlns:xlink="http://www.w3.org/1999/xlink" x="0px" y="0px"
	 viewBox="0 0 292.8 320.4" style="enable-background:new 0 0 292.8 320.4;" xml:space="preserve">
<style type="text/css">
	.st0{fill:#FFFFFF;}
	.st1{fill:none;stroke:#231F20;stroke-width:4;stroke-miterlimit:10;}
	.st2{fill:none;stroke:#231F20;stroke-width:4;stroke-linejoin:round;stroke-miterlimit:10;}
</style>
<polygon class="st0" points="248.7,173.2 248.7,58.2 149.1,0.7 49.6,58.2 49.6,173.2 149.1,230.7 "/>
<polygon class="st1" points="59.4,63.9 59.4,167.5 149.1,219.3 238.8,167.5 238.8,63.9 149.1,12.1 "/>
<g>
	<path class="st0" d="M4.9,277.1v-29.3h6.4v29.3H4.9z"/>
	<path class="st0" d="M33.8,273.5c-0.4,0.9-1,1.7-1.8,2.2c-0.8,0.6-1.7,1-2.7,1.3c-1,0.3-2.2,0.4-3.4,0.4c-1.6,0-3.2-0.3-4.9-0.8
		c-1.7-0.5-3.2-1.4-4.7-2.6l2.7-4.2c1.2,0.9,2.4,1.6,3.7,2c1.2,0.4,2.3,0.7,3.4,0.7c0.9,0,1.6-0.2,2-0.5c0.4-0.3,0.6-0.7,0.6-1.2
		v-0.1c0-0.3-0.1-0.6-0.4-0.9s-0.6-0.5-1-0.6c-0.4-0.2-0.9-0.4-1.5-0.5c-0.6-0.2-1.1-0.3-1.8-0.5c-0.8-0.2-1.6-0.5-2.4-0.8
		c-0.8-0.3-1.5-0.7-2.2-1.3c-0.6-0.5-1.2-1.2-1.6-1.9c-0.4-0.8-0.6-1.7-0.6-2.8v-0.1c0-1.1,0.2-2.2,0.6-3c0.4-0.9,1-1.6,1.8-2.2
		c0.7-0.6,1.6-1.1,2.6-1.4c1-0.3,2.1-0.5,3.2-0.5c1.4,0,2.9,0.2,4.3,0.7c1.5,0.5,2.8,1.1,4,1.9l-2.4,4.4c-1.1-0.6-2.2-1.2-3.3-1.5
		c-1.1-0.4-2-0.6-2.8-0.6c-0.8,0-1.4,0.1-1.8,0.4s-0.6,0.7-0.6,1.1v0.1c0,0.3,0.1,0.6,0.4,0.8c0.3,0.2,0.6,0.5,1,0.7
		c0.4,0.2,0.9,0.4,1.4,0.6c0.5,0.2,1.1,0.4,1.7,0.6c0.8,0.3,1.6,0.6,2.4,0.9c0.8,0.3,1.5,0.8,2.2,1.3c0.6,0.5,1.2,1.1,1.6,1.8
		c0.4,0.7,0.6,1.6,0.6,2.6v0.1C34.5,271.5,34.2,272.6,33.8,273.5z"/>
	<path class="st0" d="M39.3,277.1v-30.5h6.4v30.5H39.3z"/>
	<path class="st0" d="M64.8,277.1v-2.4c-0.8,0.9-1.7,1.6-2.8,2.1c-1.1,0.5-2.4,0.8-4,0.8c-1.1,0-2.1-0.1-3-0.4s-1.8-0.7-2.4-1.3
		s-1.2-1.3-1.7-2.2c-0.4-0.9-0.6-1.8-0.6-3v-0.1c0-1.2,0.2-2.3,0.7-3.2c0.4-0.9,1.1-1.6,1.9-2.2c0.8-0.6,1.7-1,2.8-1.3
		c1.1-0.3,2.3-0.4,3.7-0.4c1.1,0,2.1,0.1,3,0.3c0.9,0.2,1.7,0.4,2.5,0.7v-0.4c0-1.3-0.4-2.4-1.2-3.1c-0.8-0.7-2-1-3.6-1
		c-1.2,0-2.3,0.1-3.2,0.3c-0.9,0.2-1.9,0.5-2.9,0.9l-1.6-4.9c1.2-0.5,2.5-1,3.8-1.3c1.3-0.3,3-0.5,4.9-0.5c3.5,0,6,0.9,7.6,2.6
		c1.6,1.7,2.4,4.1,2.4,7.1v13H64.8z M64.9,268c-0.6-0.3-1.2-0.5-1.9-0.6c-0.7-0.2-1.4-0.2-2.2-0.2c-1.4,0-2.4,0.3-3.2,0.8
		c-0.8,0.5-1.2,1.3-1.2,2.3v0.1c0,0.9,0.3,1.5,1,2c0.6,0.5,1.5,0.7,2.5,0.7c1.5,0,2.7-0.4,3.6-1.1c0.9-0.7,1.4-1.7,1.4-2.8V268z"/>
	<path class="st0" d="M104.3,277.1v-12.5c0-1.5-0.3-2.6-1-3.4c-0.6-0.8-1.6-1.1-2.8-1.1c-1.2,0-2.1,0.4-2.8,1.1
		c-0.7,0.8-1,1.9-1,3.4v12.5h-6.4v-12.5c0-1.5-0.3-2.6-1-3.4c-0.6-0.8-1.6-1.1-2.8-1.1c-1.2,0-2.1,0.4-2.8,1.1c-0.7,0.8-1,1.9-1,3.4
		v12.5h-6.4v-22.4h6.4v3.2c0.4-0.5,0.8-0.9,1.2-1.4c0.4-0.4,0.9-0.8,1.4-1.2c0.5-0.3,1.1-0.6,1.8-0.8c0.7-0.2,1.4-0.3,2.2-0.3
		c1.5,0,2.8,0.3,3.8,0.9c1.1,0.6,1.9,1.5,2.5,2.7c1-1.2,2.1-2.1,3.3-2.7c1.2-0.6,2.6-0.9,4.1-0.9c2.4,0,4.2,0.7,5.6,2.1
		c1.3,1.4,2,3.4,2,6.2v14.6H104.3z"/>
	<path class="st0" d="M138.4,270.4c-0.6,1.4-1.5,2.6-2.6,3.7s-2.4,1.9-3.8,2.5s-3.1,0.9-4.9,0.9c-1.7,0-3.3-0.3-4.8-0.9
		c-1.5-0.6-2.8-1.4-3.8-2.5c-1.1-1-1.9-2.3-2.5-3.7c-0.6-1.4-0.9-2.9-0.9-4.5v-0.1c0-1.6,0.3-3.1,0.9-4.5c0.6-1.4,1.5-2.6,2.6-3.7
		c1.1-1.1,2.4-1.9,3.8-2.5c1.5-0.6,3.1-0.9,4.9-0.9c1.7,0,3.3,0.3,4.8,0.9c1.5,0.6,2.8,1.4,3.8,2.5c1.1,1,1.9,2.3,2.5,3.7
		c0.6,1.4,0.9,2.9,0.9,4.5v0.1C139.4,267.5,139,269,138.4,270.4z M133.1,265.9c0-0.8-0.1-1.6-0.4-2.4c-0.3-0.7-0.7-1.4-1.2-2
		c-0.5-0.6-1.2-1-1.9-1.4c-0.7-0.3-1.5-0.5-2.4-0.5c-0.9,0-1.7,0.2-2.4,0.5c-0.7,0.3-1.3,0.8-1.8,1.3c-0.5,0.6-0.9,1.2-1.2,1.9
		c-0.3,0.7-0.4,1.5-0.4,2.4v0.1c0,0.8,0.1,1.6,0.4,2.4c0.3,0.7,0.7,1.4,1.2,2c0.5,0.6,1.2,1,1.9,1.4c0.7,0.3,1.5,0.5,2.4,0.5
		c0.9,0,1.7-0.2,2.4-0.5c0.7-0.3,1.3-0.8,1.8-1.3c0.5-0.6,0.9-1.2,1.2-1.9C132.9,267.6,133.1,266.8,133.1,265.9L133.1,265.9z"/>
	<path class="st0" d="M166.7,270.8c-0.6,1.4-1.3,2.7-2.3,3.6c-0.9,1-2,1.7-3.2,2.2c-1.2,0.5-2.5,0.8-3.8,0.8c-1.7,0-3.1-0.3-4.2-1
		c-1.1-0.7-2-1.4-2.8-2.3v9.6H144v-29.1h6.4v3.2c0.8-1.1,1.7-1.9,2.8-2.6c1.1-0.7,2.5-1,4.2-1c1.3,0,2.6,0.3,3.8,0.8
		c1.2,0.5,2.3,1.2,3.3,2.2c0.9,1,1.7,2.2,2.3,3.6c0.6,1.4,0.9,3.1,0.9,5v0.1C167.5,267.8,167.2,269.4,166.7,270.8z M161.1,265.8
		c0-0.9-0.1-1.8-0.4-2.5c-0.3-0.8-0.7-1.4-1.2-2c-0.5-0.5-1.1-1-1.7-1.3c-0.7-0.3-1.4-0.4-2.1-0.4c-0.8,0-1.5,0.1-2.1,0.4
		s-1.2,0.7-1.7,1.3c-0.5,0.5-0.9,1.2-1.2,2c-0.3,0.8-0.4,1.6-0.4,2.5v0.1c0,0.9,0.1,1.8,0.4,2.5c0.3,0.8,0.7,1.4,1.2,2
		c0.5,0.5,1.1,1,1.7,1.3s1.4,0.4,2.1,0.4c0.8,0,1.5-0.1,2.1-0.4c0.7-0.3,1.2-0.7,1.7-1.3c0.5-0.5,0.9-1.2,1.2-2
		C161,267.7,161.1,266.8,161.1,265.8L161.1,265.8z"/>
	<path class="st0" d="M186.4,277.1v-12.5c0-1.5-0.3-2.6-1-3.4c-0.7-0.8-1.6-1.1-2.8-1.1c-1.2,0-2.2,0.4-2.9,1.1
		c-0.7,0.8-1.1,1.9-1.1,3.4v12.5h-6.4v-30.5h6.4v11.3c0.4-0.5,0.8-0.9,1.2-1.4c0.4-0.4,0.9-0.8,1.4-1.2c0.5-0.3,1.1-0.6,1.8-0.8
		c0.6-0.2,1.4-0.3,2.2-0.3c2.4,0,4.3,0.7,5.6,2.2c1.3,1.5,2,3.5,2,6.1v14.5H186.4z"/>
	<path class="st0" d="M220.5,270.4c-0.6,1.4-1.5,2.6-2.6,3.7s-2.4,1.9-3.8,2.5s-3.1,0.9-4.9,0.9c-1.7,0-3.3-0.3-4.8-0.9
		c-1.5-0.6-2.8-1.4-3.8-2.5c-1.1-1-1.9-2.3-2.5-3.7c-0.6-1.4-0.9-2.9-0.9-4.5v-0.1c0-1.6,0.3-3.1,0.9-4.5c0.6-1.4,1.5-2.6,2.6-3.7
		c1.1-1.1,2.4-1.9,3.8-2.5c1.5-0.6,3.1-0.9,4.9-0.9c1.7,0,3.3,0.3,4.8,0.9c1.5,0.6,2.8,1.4,3.8,2.5c1.1,1,1.9,2.3,2.5,3.7
		c0.6,1.4,0.9,2.9,0.9,4.5v0.1C221.4,267.5,221.1,269,220.5,270.4z M215.2,265.9c0-0.8-0.1-1.6-0.4-2.4c-0.3-0.7-0.7-1.4-1.2-2
		c-0.5-0.6-1.2-1-1.9-1.4c-0.7-0.3-1.5-0.5-2.4-0.5c-0.9,0-1.7,0.2-2.4,0.5c-0.7,0.3-1.3,0.8-1.8,1.3c-0.5,0.6-0.9,1.2-1.2,1.9
		c-0.3,0.7-0.4,1.5-0.4,2.4v0.1c0,0.8,0.1,1.6,0.4,2.4c0.3,0.7,0.7,1.4,1.2,2c0.5,0.6,1.2,1,1.9,1.4c0.7,0.3,1.5,0.5,2.4,0.5
		c0.9,0,1.7-0.2,2.4-0.5c0.7-0.3,1.3-0.8,1.8-1.3c0.5-0.6,0.9-1.2,1.2-1.9C215,267.6,215.2,266.8,215.2,265.9L215.2,265.9z"/>
	<path class="st0" d="M248.7,270.8c-0.6,1.4-1.3,2.7-2.3,3.6c-0.9,1-2,1.7-3.2,2.2c-1.2,0.5-2.5,0.8-3.8,0.8c-1.7,0-3.1-0.3-4.2-1
		c-1.1-0.7-2-1.4-2.8-2.3v2.9H226v-30.5h6.4v11.3c0.8-1.1,1.7-1.9,2.8-2.6c1.1-0.7,2.5-1,4.2-1c1.3,0,2.6,0.3,3.8,0.8
		c1.2,0.5,2.3,1.2,3.3,2.2c0.9,1,1.7,2.2,2.3,3.6c0.6,1.4,0.9,3.1,0.9,5v0.1C249.6,267.8,249.3,269.4,248.7,270.8z M243.2,265.8
		c0-0.9-0.1-1.8-0.4-2.5c-0.3-0.8-0.7-1.4-1.2-2c-0.5-0.5-1.1-1-1.7-1.3c-0.7-0.3-1.4-0.4-2.1-0.4c-0.8,0-1.5,0.1-2.1,0.4
		s-1.2,0.7-1.7,1.3c-0.5,0.5-0.9,1.2-1.2,2c-0.3,0.8-0.4,1.6-0.4,2.5v0.1c0,0.9,0.1,1.8,0.4,2.5c0.3,0.8,0.7,1.4,1.2,2
		c0.5,0.5,1.1,1,1.7,1.3s1.4,0.4,2.1,0.4c0.8,0,1.5-0.1,2.1-0.4c0.7-0.3,1.2-0.7,1.7-1.3c0.5-0.5,0.9-1.2,1.2-2
		C243.1,267.7,243.2,266.8,243.2,265.8L243.2,265.8z"/>
	<path class="st0" d="M254.4,252.2v-5.6h6.7v5.6H254.4z M254.6,277.1v-22.4h6.4v22.4H254.6z"/>
	<path class="st0" d="M280.1,277.1v-2.4c-0.8,0.9-1.7,1.6-2.8,2.1c-1.1,0.5-2.4,0.8-4,0.8c-1.1,0-2.1-0.1-3-0.4s-1.8-0.7-2.4-1.3
		s-1.2-1.3-1.7-2.2c-0.4-0.9-0.6-1.8-0.6-3v-0.1c0-1.2,0.2-2.3,0.7-3.2c0.4-0.9,1.1-1.6,1.9-2.2c0.8-0.6,1.7-1,2.8-1.3
		c1.1-0.3,2.3-0.4,3.7-0.4c1.1,0,2.1,0.1,3,0.3c0.9,0.2,1.7,0.4,2.5,0.7v-0.4c0-1.3-0.4-2.4-1.2-3.1c-0.8-0.7-2-1-3.6-1
		c-1.2,0-2.3,0.1-3.2,0.3c-0.9,0.2-1.9,0.5-2.9,0.9l-1.6-4.9c1.2-0.5,2.5-1,3.8-1.3c1.3-0.3,3-0.5,4.9-0.5c3.5,0,6,0.9,7.6,2.6
		c1.6,1.7,2.4,4.1,2.4,7.1v13H280.1z M280.2,268c-0.6-0.3-1.2-0.5-1.9-0.6c-0.7-0.2-1.4-0.2-2.2-0.2c-1.4,0-2.4,0.3-3.2,0.8
		c-0.8,0.5-1.2,1.3-1.2,2.3v0.1c0,0.9,0.3,1.5,1,2c0.6,0.5,1.5,0.7,2.5,0.7c1.5,0,2.7-0.4,3.6-1.1c0.9-0.7,1.4-1.7,1.4-2.8V268z"/>
	<path class="st0" d="M68.9,289.6H72l13.3,29.5h-3.6l-3.4-7.7H62.4l-3.5,7.7h-3.4L68.9,289.6z M77.1,308.3l-6.7-14.9l-6.7,14.9H77.1
		z"/>
	<path class="st0" d="M89.8,310.9v-13.4h3.2v12.6c0,4,2.2,6.5,6,6.5c3.7,0,6.5-2.7,6.5-6.8v-12.4h3.2v21.6h-3.2v-3.8
		c-1.5,2.3-3.7,4.2-7.4,4.2C92.9,319.5,89.8,316,89.8,310.9z"/>
	<path class="st0" d="M114.1,316.3l1.6-2.3c2.3,1.8,4.9,2.8,7.5,2.8c2.6,0,4.5-1.3,4.5-3.4v-0.1c0-2.2-2.6-3-5.4-3.8
		c-3.4-1-7.2-2.1-7.2-6.1v-0.1c0-3.7,3.1-6.2,7.4-6.2c2.6,0,5.6,0.9,7.8,2.4l-1.5,2.4c-2-1.3-4.3-2.1-6.4-2.1
		c-2.6,0-4.2,1.3-4.2,3.1v0.1c0,2.1,2.7,2.8,5.6,3.7c3.3,1,6.9,2.3,6.9,6.2v0.1c0,4.1-3.4,6.5-7.7,6.5
		C120,319.5,116.6,318.3,114.1,316.3z"/>
	<path class="st0" d="M137.5,313.3v-13.1h-3v-2.8h3v-6.5h3.2v6.5h6.9v2.8h-6.9v12.6c0,2.6,1.5,3.6,3.6,3.6c1.1,0,2-0.2,3.1-0.8v2.8
		c-1.1,0.6-2.3,0.9-3.9,0.9C140.1,319.4,137.5,317.7,137.5,313.3z"/>
	<path class="st0" d="M153.3,297.4h3.2v5.6c1.6-3.6,4.7-6.2,8.8-6v3.5h-0.3c-4.7,0-8.6,3.4-8.6,9.9v8.6h-3.2V297.4z"/>
	<path class="st0" d="M167.5,312.8L167.5,312.8c0-4.6,3.8-7.1,9.2-7.1c2.8,0,4.7,0.4,6.7,0.9v-0.8c0-3.9-2.4-5.9-6.4-5.9
		c-2.6,0-4.6,0.7-6.6,1.6l-1-2.6c2.4-1.1,4.7-1.8,7.9-1.8c3.1,0,5.4,0.8,7,2.4c1.5,1.5,2.2,3.6,2.2,6.3v13.2h-3.1v-3.3
		c-1.5,2-4,3.7-7.8,3.7C171.6,319.5,167.5,317.2,167.5,312.8z M183.5,311.1V309c-1.6-0.5-3.7-0.9-6.4-0.9c-4.1,0-6.3,1.8-6.3,4.5
		v0.1c0,2.7,2.5,4.3,5.4,4.3C180.2,317,183.5,314.5,183.5,311.1z"/>
	<path class="st0" d="M193.7,288.5h3.2v30.5h-3.2V288.5z"/>
	<path class="st0" d="M204.5,289.1h3.7v3.6h-3.7V289.1z M204.7,297.4h3.2v21.6h-3.2V297.4z"/>
	<path class="st0" d="M213.8,312.8L213.8,312.8c0-4.6,3.8-7.1,9.2-7.1c2.8,0,4.7,0.4,6.7,0.9v-0.8c0-3.9-2.4-5.9-6.4-5.9
		c-2.6,0-4.6,0.7-6.6,1.6l-1-2.6c2.4-1.1,4.7-1.8,7.9-1.8c3.1,0,5.4,0.8,7,2.4c1.5,1.5,2.2,3.6,2.2,6.3v13.2h-3.1v-3.3
		c-1.5,2-4,3.7-7.8,3.7C217.8,319.5,213.8,317.2,213.8,312.8z M229.7,311.1V309c-1.6-0.5-3.7-0.9-6.4-0.9c-4.1,0-6.3,1.8-6.3,4.5
		v0.1c0,2.7,2.5,4.3,5.4,4.3C226.4,317,229.7,314.5,229.7,311.1z"/>
</g>
<polyline class="st2" points="149.1,219.3 149.1,12.1 237.9,168.5 "/>
<line class="st2" x1="60.5" y1="64.7" x2="149.1" y2="219.3"/>
<line class="st2" x1="149.1" y1="12.1" x2="149.1" y2="219.3"/>
<line class="st2" x1="149.1" y1="157.4" x2="208.6" y2="116.9"/>
</svg>
