<?xml version="1.0" encoding="utf-8"?>
<!-- Generator: Adobe Illustrator 23.0.1, SVG Export Plug-In . SVG Version: 6.00 Build 0)  -->
<svg version="1.1" id="Layer_1" xmlns="http://www.w3.org/2000/svg" xmlns:xlink="http://www.w3.org/1999/xlink" x="0px" y="0px"
	 viewBox="0 0 672.2 200.2" style="enable-background:new 0 0 672.2 200.2;" xml:space="preserve">
<style type="text/css">
	.st0{enable-background:new    ;}
	.st1{fill:#231F20;}
	.st2{fill:#5A4570;}
	.st3{fill:#3580AF;}
	.st4{fill:#F7CB97;}
	.st5{fill:#C06C85;}
	.st6{fill:#FCA9B5;}
</style>
<g class="st0">
	<path class="st1" d="M231.4,84.4V38.6h10.1v45.7H231.4z"/>
	<path class="st1" d="M276.5,78.8c-0.7,1.4-1.6,2.6-2.8,3.5c-1.2,0.9-2.6,1.6-4.3,2.1c-1.6,0.5-3.4,0.7-5.3,0.7
		c-2.5,0-5-0.4-7.6-1.3c-2.6-0.8-5.1-2.2-7.4-4l4.2-6.5c1.9,1.4,3.8,2.4,5.7,3.1c1.9,0.7,3.7,1,5.3,1c1.4,0,2.5-0.2,3.2-0.7
		c0.7-0.5,1-1.1,1-1.9v-0.1c0-0.5-0.2-1-0.6-1.4c-0.4-0.4-0.9-0.7-1.6-1c-0.7-0.3-1.4-0.6-2.3-0.8c-0.9-0.3-1.8-0.5-2.7-0.8
		c-1.2-0.3-2.5-0.8-3.7-1.3c-1.2-0.5-2.4-1.2-3.4-2c-1-0.8-1.8-1.8-2.5-3c-0.6-1.2-0.9-2.6-0.9-4.3v-0.1c0-1.8,0.3-3.4,1-4.7
		c0.7-1.4,1.6-2.5,2.7-3.5c1.2-1,2.5-1.7,4.1-2.2c1.5-0.5,3.2-0.7,5-0.7c2.2,0,4.5,0.4,6.8,1.1c2.3,0.7,4.4,1.7,6.3,3l-3.8,6.9
		c-1.7-1-3.4-1.8-5.1-2.4c-1.7-0.6-3.1-0.9-4.4-0.9c-1.2,0-2.1,0.2-2.7,0.7c-0.6,0.5-0.9,1-0.9,1.7V59c0,0.5,0.2,0.9,0.6,1.3
		s0.9,0.7,1.6,1c0.7,0.3,1.4,0.6,2.3,0.9c0.8,0.3,1.8,0.6,2.7,0.9c1.2,0.4,2.5,0.9,3.7,1.4c1.3,0.5,2.4,1.2,3.4,2
		c1,0.8,1.8,1.7,2.5,2.9s1,2.5,1,4.1v0.1C277.5,75.7,277.2,77.4,276.5,78.8z"/>
	<path class="st1" d="M285.1,84.4V36.7h9.9v47.7H285.1z"/>
	<path class="st1" d="M324.9,84.4v-3.8c-1.2,1.4-2.7,2.4-4.4,3.2c-1.7,0.8-3.8,1.2-6.2,1.2c-1.7,0-3.2-0.2-4.7-0.7
		c-1.5-0.5-2.7-1.1-3.8-2.1c-1.1-0.9-2-2-2.6-3.4c-0.6-1.3-0.9-2.9-0.9-4.6v-0.1c0-1.9,0.3-3.6,1-5c0.7-1.4,1.7-2.5,2.9-3.5
		c1.2-0.9,2.7-1.6,4.4-2.1c1.7-0.5,3.6-0.7,5.7-0.7c1.8,0,3.3,0.1,4.7,0.4c1.3,0.3,2.6,0.6,3.9,1v-0.6c0-2.1-0.6-3.7-1.9-4.8
		c-1.3-1.1-3.1-1.6-5.6-1.6c-1.9,0-3.6,0.2-5.1,0.5c-1.5,0.3-3,0.8-4.6,1.4l-2.5-7.6c1.9-0.8,3.9-1.5,6-2c2.1-0.5,4.6-0.8,7.6-0.8
		c5.4,0,9.4,1.3,11.9,4c2.5,2.7,3.7,6.4,3.7,11.1v20.3H324.9z M325.1,70.2c-0.9-0.4-1.8-0.7-2.9-0.9c-1.1-0.2-2.2-0.4-3.4-0.4
		c-2.1,0-3.8,0.4-5,1.2c-1.2,0.8-1.8,2-1.8,3.6v0.1c0,1.4,0.5,2.4,1.5,3.1c1,0.7,2.3,1.1,3.9,1.1c2.4,0,4.2-0.6,5.7-1.7
		c1.4-1.1,2.1-2.6,2.1-4.4V70.2z"/>
	<path class="st1" d="M386.6,84.4V64.9c0-2.3-0.5-4.1-1.5-5.3c-1-1.2-2.4-1.8-4.3-1.8s-3.3,0.6-4.4,1.8c-1.1,1.2-1.6,3-1.6,5.3v19.5
		h-9.9V64.9c0-2.3-0.5-4.1-1.5-5.3c-1-1.2-2.4-1.8-4.3-1.8s-3.3,0.6-4.4,1.8c-1.1,1.2-1.6,3-1.6,5.3v19.5h-9.9v-35h9.9v5
		c0.6-0.7,1.2-1.5,1.9-2.1c0.7-0.7,1.4-1.3,2.3-1.8c0.8-0.5,1.8-0.9,2.8-1.3c1-0.3,2.2-0.5,3.4-0.5c2.3,0,4.3,0.5,6,1.4
		c1.7,1,3,2.3,3.9,4.1c1.5-1.8,3.2-3.2,5.1-4.2c1.9-0.9,4-1.4,6.4-1.4c3.7,0,6.6,1.1,8.7,3.3c2.1,2.2,3.1,5.4,3.1,9.6v22.8H386.6z"
		/>
	<path class="st1" d="M439.9,74c-1,2.2-2.3,4.1-4,5.8c-1.7,1.7-3.7,3-6,3.9c-2.3,1-4.8,1.4-7.6,1.4c-2.7,0-5.2-0.5-7.5-1.4
		c-2.3-0.9-4.3-2.2-6-3.9c-1.7-1.6-3-3.5-4-5.8c-1-2.2-1.4-4.6-1.4-7.1v-0.1c0-2.5,0.5-4.9,1.4-7.1c1-2.2,2.3-4.1,4-5.8
		c1.7-1.7,3.7-3,6-3.9c2.3-1,4.8-1.4,7.6-1.4c2.7,0,5.2,0.5,7.5,1.4s4.3,2.2,6,3.9c1.7,1.6,3,3.6,4,5.8c1,2.2,1.4,4.6,1.4,7.1v0.1
		C441.3,69.4,440.8,71.8,439.9,74z M431.5,66.9c0-1.3-0.2-2.5-0.7-3.7s-1.1-2.2-1.9-3.1c-0.8-0.9-1.8-1.6-2.9-2.1
		c-1.1-0.5-2.4-0.8-3.7-0.8c-1.4,0-2.7,0.3-3.8,0.8c-1.1,0.5-2.1,1.2-2.8,2.1c-0.8,0.9-1.4,1.9-1.8,3s-0.6,2.4-0.6,3.7v0.1
		c0,1.3,0.2,2.5,0.7,3.7c0.4,1.2,1.1,2.2,1.9,3.1c0.8,0.9,1.8,1.6,2.9,2.1c1.1,0.5,2.4,0.8,3.8,0.8c1.4,0,2.7-0.3,3.8-0.8
		c1.1-0.5,2.1-1.2,2.8-2.1s1.4-1.9,1.8-3c0.4-1.2,0.6-2.4,0.6-3.7V66.9z"/>
	<path class="st1" d="M484,74.7c-0.9,2.2-2.1,4.1-3.5,5.7c-1.5,1.5-3.1,2.7-5.1,3.5c-1.9,0.8-3.9,1.2-6,1.2c-2.7,0-4.8-0.5-6.6-1.6
		c-1.7-1-3.2-2.2-4.3-3.6v15h-9.9V49.3h9.9v5c1.2-1.6,2.7-3,4.4-4.1c1.7-1.1,3.9-1.6,6.5-1.6c2,0,4,0.4,5.9,1.2
		c1.9,0.8,3.6,1.9,5.1,3.5c1.5,1.5,2.7,3.4,3.6,5.7c0.9,2.2,1.3,4.8,1.3,7.7v0.1C485.3,69.8,484.9,72.4,484,74.7z M475.4,66.8
		c0-1.4-0.2-2.8-0.7-4c-0.5-1.2-1.1-2.2-1.9-3.1s-1.7-1.5-2.7-2c-1-0.5-2.1-0.7-3.3-0.7s-2.3,0.2-3.3,0.7c-1,0.5-1.9,1.1-2.7,2
		c-0.8,0.9-1.4,1.9-1.8,3.1c-0.5,1.2-0.7,2.5-0.7,4v0.1c0,1.4,0.2,2.8,0.7,4c0.5,1.2,1.1,2.2,1.8,3.1c0.8,0.9,1.7,1.5,2.7,2
		c1,0.5,2.1,0.7,3.3,0.7s2.3-0.2,3.3-0.7c1-0.5,1.9-1.1,2.7-2s1.4-1.9,1.9-3.1c0.5-1.2,0.7-2.5,0.7-4V66.8z"/>
	<path class="st1" d="M514.8,84.4V64.9c0-2.3-0.5-4.1-1.6-5.3c-1-1.2-2.5-1.8-4.4-1.8s-3.4,0.6-4.5,1.8c-1.1,1.2-1.7,3-1.7,5.3v19.5
		h-9.9V36.7h9.9v17.7c0.6-0.7,1.2-1.5,1.9-2.1c0.7-0.7,1.4-1.3,2.3-1.8c0.8-0.5,1.7-0.9,2.7-1.3c1-0.3,2.1-0.5,3.4-0.5
		c3.8,0,6.7,1.2,8.8,3.5c2.1,2.3,3.1,5.5,3.1,9.5v22.7H514.8z"/>
	<path class="st1" d="M568.1,74c-1,2.2-2.3,4.1-4,5.8c-1.7,1.7-3.7,3-6,3.9c-2.3,1-4.8,1.4-7.6,1.4c-2.7,0-5.2-0.5-7.5-1.4
		c-2.3-0.9-4.3-2.2-6-3.9c-1.7-1.6-3-3.5-4-5.8c-1-2.2-1.4-4.6-1.4-7.1v-0.1c0-2.5,0.5-4.9,1.4-7.1c1-2.2,2.3-4.1,4-5.8
		c1.7-1.7,3.7-3,6-3.9c2.3-1,4.8-1.4,7.6-1.4c2.7,0,5.2,0.5,7.5,1.4s4.3,2.2,6,3.9c1.7,1.6,3,3.6,4,5.8c1,2.2,1.4,4.6,1.4,7.1v0.1
		C569.5,69.4,569,71.8,568.1,74z M559.7,66.9c0-1.3-0.2-2.5-0.7-3.7s-1.1-2.2-1.9-3.1c-0.8-0.9-1.8-1.6-2.9-2.1
		c-1.1-0.5-2.4-0.8-3.7-0.8c-1.4,0-2.7,0.3-3.8,0.8c-1.1,0.5-2.1,1.2-2.8,2.1c-0.8,0.9-1.4,1.9-1.8,3s-0.6,2.4-0.6,3.7v0.1
		c0,1.3,0.2,2.5,0.7,3.7c0.4,1.2,1.1,2.2,1.9,3.1c0.8,0.9,1.8,1.6,2.9,2.1c1.1,0.5,2.4,0.8,3.8,0.8c1.4,0,2.7-0.3,3.8-0.8
		c1.1-0.5,2.1-1.2,2.8-2.1s1.4-1.9,1.8-3c0.4-1.2,0.6-2.4,0.6-3.7V66.9z"/>
	<path class="st1" d="M612.2,74.7c-0.9,2.2-2.1,4.1-3.5,5.7c-1.5,1.5-3.1,2.7-5.1,3.5c-1.9,0.8-3.9,1.2-6,1.2
		c-2.7,0-4.8-0.5-6.6-1.6s-3.2-2.2-4.3-3.6v4.5h-9.9V36.7h9.9v17.7c1.2-1.6,2.7-3,4.4-4.1c1.7-1.1,3.9-1.6,6.5-1.6
		c2,0,4,0.4,5.9,1.2c1.9,0.8,3.6,1.9,5.1,3.5c1.5,1.5,2.7,3.4,3.6,5.7c0.9,2.2,1.3,4.8,1.3,7.7v0.1
		C613.5,69.8,613.1,72.4,612.2,74.7z M603.6,66.8c0-1.4-0.2-2.8-0.7-4s-1.1-2.2-1.9-3.1s-1.7-1.5-2.7-2c-1-0.5-2.1-0.7-3.3-0.7
		c-1.2,0-2.3,0.2-3.3,0.7c-1,0.5-1.9,1.1-2.7,2c-0.8,0.9-1.4,1.9-1.8,3.1c-0.5,1.2-0.7,2.5-0.7,4v0.1c0,1.4,0.2,2.8,0.7,4
		c0.5,1.2,1.1,2.2,1.8,3.1c0.8,0.9,1.7,1.5,2.7,2c1,0.5,2.1,0.7,3.3,0.7c1.2,0,2.3-0.2,3.3-0.7c1-0.5,1.9-1.1,2.7-2s1.4-1.9,1.9-3.1
		s0.7-2.5,0.7-4V66.8z"/>
	<path class="st1" d="M621,45.5v-8.8h10.5v8.8H621z M621.3,84.4v-35h9.9v35H621.3z"/>
	<path class="st1" d="M661.1,84.4v-3.8c-1.2,1.4-2.7,2.4-4.4,3.2s-3.8,1.2-6.2,1.2c-1.7,0-3.2-0.2-4.7-0.7c-1.5-0.5-2.7-1.1-3.8-2.1
		s-2-2-2.6-3.4c-0.6-1.3-0.9-2.9-0.9-4.6v-0.1c0-1.9,0.3-3.6,1-5c0.7-1.4,1.7-2.5,2.9-3.5c1.2-0.9,2.7-1.6,4.4-2.1
		c1.7-0.5,3.6-0.7,5.7-0.7c1.8,0,3.3,0.1,4.7,0.4c1.3,0.3,2.6,0.6,3.9,1v-0.6c0-2.1-0.6-3.7-1.9-4.8s-3.1-1.6-5.6-1.6
		c-1.9,0-3.6,0.2-5.1,0.5c-1.5,0.3-3,0.8-4.6,1.4l-2.5-7.6c1.9-0.8,3.9-1.5,6-2c2.1-0.5,4.6-0.8,7.6-0.8c5.4,0,9.4,1.3,11.9,4
		c2.5,2.7,3.7,6.4,3.7,11.1v20.3H661.1z M661.3,70.2c-0.9-0.4-1.8-0.7-2.9-0.9c-1.1-0.2-2.2-0.4-3.4-0.4c-2.1,0-3.8,0.4-5,1.2
		s-1.8,2-1.8,3.6v0.1c0,1.4,0.5,2.4,1.5,3.1c1,0.7,2.3,1.1,3.9,1.1c2.4,0,4.2-0.6,5.7-1.7c1.4-1.1,2.1-2.6,2.1-4.4V70.2z"/>
</g>
<g class="st0">
	<path class="st1" d="M248.8,103.9h4.8l20.8,46.1H269l-5.4-12.1h-24.9l-5.4,12.1H228L248.8,103.9z M261.6,133.2l-10.4-23.3
		l-10.5,23.3H261.6z"/>
	<path class="st1" d="M281.5,137.1v-21h5v19.7c0,6.3,3.4,10.2,9.3,10.2c5.8,0,10.1-4.2,10.1-10.6v-19.3h5V150h-5v-5.9
		c-2.3,3.7-5.7,6.6-11.6,6.6C286.3,150.7,281.5,145.2,281.5,137.1z"/>
	<path class="st1" d="M319.5,145.6l2.5-3.6c3.7,2.7,7.7,4.3,11.7,4.3c4.1,0,7-2.1,7-5.4v-0.1c0-3.4-4-4.7-8.4-5.9
		c-5.3-1.5-11.2-3.3-11.2-9.5v-0.1c0-5.8,4.8-9.7,11.5-9.7c4.1,0,8.7,1.4,12.2,3.7l-2.3,3.8c-3.1-2-6.7-3.3-10-3.3
		c-4,0-6.5,2.1-6.5,4.9v0.1c0,3.2,4.2,4.4,8.7,5.8c5.2,1.6,10.8,3.6,10.8,9.7v0.1c0,6.4-5.3,10.1-12,10.1
		C328.6,150.6,323.3,148.7,319.5,145.6z"/>
	<path class="st1" d="M355.9,141v-20.4h-4.7v-4.4h4.7V106h5v10.2h10.7v4.4H361v19.7c0,4.1,2.3,5.6,5.7,5.6c1.7,0,3.1-0.3,4.9-1.2
		v4.3c-1.8,0.9-3.7,1.4-6.1,1.4C360,150.5,355.9,147.9,355.9,141z"/>
	<path class="st1" d="M380.6,116.2h5v8.8c2.5-5.6,7.4-9.7,13.8-9.4v5.4H399c-7.4,0-13.4,5.3-13.4,15.5V150h-5V116.2z"/>
	<path class="st1" d="M402.8,140.2V140c0-7.1,5.9-10.9,14.4-10.9c4.3,0,7.4,0.6,10.4,1.4v-1.2c0-6.1-3.7-9.2-10.1-9.2
		c-4,0-7.1,1-10.3,2.5l-1.5-4.1c3.7-1.7,7.4-2.8,12.3-2.8c4.8,0,8.4,1.2,10.9,3.7c2.3,2.3,3.5,5.6,3.5,9.9V150h-4.8v-5.1
		c-2.4,3.1-6.3,5.8-12.2,5.8C409.2,150.7,402.8,147.1,402.8,140.2z M427.7,137.5v-3.3c-2.5-0.7-5.8-1.4-9.9-1.4
		c-6.3,0-9.9,2.7-9.9,7v0.1c0,4.2,3.9,6.7,8.5,6.7C422.6,146.7,427.7,142.9,427.7,137.5z"/>
	<path class="st1" d="M443.7,102.3h5V150h-5V102.3z"/>
	<path class="st1" d="M460.5,103.2h5.8v5.6h-5.8V103.2z M460.9,116.2h5V150h-5V116.2z"/>
	<path class="st1" d="M475,140.2V140c0-7.1,5.9-10.9,14.4-10.9c4.3,0,7.4,0.6,10.4,1.4v-1.2c0-6.1-3.7-9.2-10.1-9.2
		c-4,0-7.1,1-10.3,2.5l-1.5-4.1c3.7-1.7,7.4-2.8,12.3-2.8c4.8,0,8.4,1.2,10.9,3.7c2.3,2.3,3.5,5.6,3.5,9.9V150h-4.8v-5.1
		c-2.4,3.1-6.3,5.8-12.2,5.8C481.4,150.7,475,147.1,475,140.2z M499.9,137.5v-3.3c-2.5-0.7-5.8-1.4-9.9-1.4c-6.3,0-9.9,2.7-9.9,7
		v0.1c0,4.2,3.9,6.7,8.5,6.7C494.8,146.7,499.9,142.9,499.9,137.5z"/>
</g>
<polygon class="st2" points="85.7,196.2 85.7,0 1.2,48.8 "/>
<polygon class="st3" points="0,150.7 82.3,198.3 0,54.8 "/>
<polygon class="st4" points="175.4,49.5 93.1,1.9 175.4,147 "/>
<polygon class="st5" points="89.7,4.1 89.7,138 144.5,100.7 "/>
<polygon class="st6" points="146.5,104.2 89.7,142.8 89.7,200.2 173.5,151.8 "/>
</svg>
